#!OML:ASF F:\twosubjects\two\Thursday\Session 1\justin.ASF
:FULLY-SPECIFIED
:DEGREES
262
root 9.75379 15.9235 -6.99982 4.82736 2.46639 8.61007
lowerback 13.4283 1.0879 3.3233
upperback 0.732454 2.16662 3.10047
thorax -6.76622 1.00298 0.994222
lowerneck -0.723145 -15.0383 -11.8056
upperneck 15.7918 -21.714 11.9465
head 7.58668 -10.411 3.80785
rclavicle 2.38542e-015 -4.45278e-014
rhumerus 74.1956 30.1635 -32.1221
rradius 97.1624
rwrist -7.74261
rhand -29.0736 16.8138
rfingers 7.12502
rthumb -2.42278 -13.1522
lclavicle 2.38542e-015 -4.45278e-014
lhumerus 3.21815 32.2011 83.2849
lradius 137.33
lwrist 20.6255
lhand -19.2937 53.9185
lfingers 7.12502
lthumb 7.02168 83.782
rfemur -45.4769 -0.992125 -9.30368
rtibia 48.225
rfoot -11.8357 11.4627
rtoes -31.1787
lfemur 0.10405 -7.16087 -7.00679
ltibia 41.0596
lfoot -10.5997 -4.4182
ltoes -35.2771
263
root 9.84914 15.9619 -7.06407 4.3 1.76122 8.48153
lowerback 13.2132 0.787474 2.78424
upperback 0.770773 1.68364 3.22601
thorax -6.6259 0.788038 1.52484
lowerneck -1.33405 -14.7645 -11.1011
upperneck 16.4015 -21.2061 10.8499
head 7.62186 -10.1647 3.39094
rclavicle 2.06736e-014 2.8625e-014
rhumerus 72.1956 29.3928 -32.988
rradius 96.8506
rwrist -7.61322
rhand -29.5811 17.2099
rfingers 7.12502
rthumb -2.91288 -12.7499
lclavicle 2.06736e-014 2.8625e-014
lhumerus 4.1413 29.0016 83.3913
lradius 135.488
lwrist 20.2127
lhand -19.8534 52.851
lfingers 7.12502
lthumb 6.48131 82.7318
rfemur -44.7767 -0.994539 -9.15324
rtibia 46.7758
rfoot -10.9355 12.1487
rtoes -31.3501
lfemur 1.29794 -6.85895 -7.65829
ltibia 40.1226
lfoot -10.4902 -3.39383
ltoes -33.061
264
root 9.94486 16.0067 -7.12506 3.82253 1.22464 8.28572
lowerback 12.8268 0.474631 2.18589
upperback 0.869403 1.17523 3.46521
thorax -6.31751 0.563209 2.21192
lowerneck -2.18683 -14.5044 -11.1114
upperneck 17.3066 -20.8583 10.6336
head 8.00385 -9.95737 3.28495
rclavicle 1.43125e-014 9.54166e-015
rhumerus 70.3086 28.5004 -33.8218
rradius 96.3178
rwrist -7.38926
rhand -29.9279 17.8543
rfingers 7.12502
rthumb -3.24785 -12.1007
lclavicle 1.43125e-014 9.54166e-015
lhumerus 6.56616 25.947 84.3702
lradius 133.172
lwrist 19.6072
lhand -19.9324 52.5175
lfingers 7.12502
lthumb 6.40511 82.4006
rfemur -43.9485 -1.23897 -8.85255
rtibia 45.2164
rfoot -10.0443 12.8421
rtoes -31.5952
lfemur 2.35344 -6.30815 -8.11276
ltibia 39.3318
lfoot -10.6729 -2.23725
ltoes -31.8258
265
root 10.0298 16.0382 -7.19102 3.50788 0.770965 7.87125
lowerback 12.3626 0.149491 1.5221
upperback 0.917862 0.654373 3.85606
thorax -6.00648 0.332317 3.09371
lowerneck -3.00574 -14.2969 -10.869
upperneck 17.9826 -20.4997 10.051
head 8.23827 -9.76761 3.0436
rclavicle 2.50469e-014 -6.04305e-014
rhumerus 68.4667 27.674 -34.6487
rradius 95.9022
rwrist -6.92519
rhand -30.2688 18.3699
rfingers 7.12502
rthumb -3.57702 -11.5798
lclavicle 2.50469e-014 -6.04305e-014
lhumerus 8.19149 22.7352 84.7341
lradius 130.555
lwrist 19.177
lhand -20.3853 51.9757
lfingers 7.12502
lthumb 5.96779 81.8717
rfemur -43.194 -1.12057 -8.4678
rtibia 43.5768
rfoot -9.08671 13.0456
rtoes -32.2198
lfemur 3.05395 -5.46255 -8.11696
ltibia 38.7119
lfoot -11.0979 -1.07219
ltoes -33.2591
266
root 10.1072 16.0718 -7.26473 3.3615 0.569999 7.3603
lowerback 12.0202 -0.240438 0.967631
upperback 0.838675 0.077905 4.27211
thorax -5.87569 0.0696577 3.94805
lowerneck -3.37882 -14.0824 -11.4194
upperneck 18.1481 -20.2436 10.4764
head 8.43723 -9.63241 3.25254
rclavicle 2.38542e-015 0
rhumerus 66.6806 26.943 -35.6613
rradius 95.5517
rwrist -6.55629
rhand -30.1052 18.8341
rfingers 7.12502
rthumb -3.41901 -11.1182
lclavicle 2.38542e-015 0
lhumerus 9.36075 19.9018 84.5002
lradius 128.066
lwrist 19.5548
lhand -20.6648 52.1039
lfingers 7.12502
lthumb 5.69801 82.0073
rfemur -42.4408 -0.93776 -8.08097
rtibia 41.9404
rfoot -8.20383 12.9067
rtoes -31.8359
lfemur 3.38417 -4.56318 -7.82781
ltibia 38.2964
lfoot -11.6101 -0.251289
ltoes -34.469
267
root 10.1855 16.1201 -7.33569 3.30171 0.508189 6.93594
lowerback 11.5841 -0.637796 0.469488
upperback 0.782732 -0.506575 4.63629
thorax -5.64757 -0.202077 4.70964
lowerneck -3.52383 -13.8588 -12.0185
upperneck 17.998 -19.9673 11.006
head 8.50182 -9.50091 3.53152
rclavicle 5.56597e-015 -2.22639e-014
rhumerus 64.9475 26.1937 -36.7428
rradius 95.1761
rwrist -6.20879
rhand -29.8865 19.957
rfingers 7.12502
rthumb -3.20782 -9.99865
lclavicle 5.56597e-015 -2.22639e-014
lhumerus 10.8738 17.3972 84.0685
lradius 125.363
lwrist 20.5189
lhand -21.1904 51.9556
lfingers 7.12502
lthumb 5.19052 81.872
rfemur -41.6924 -0.87785 -7.78497
rtibia 40.3839
rfoot -7.54323 12.6941
rtoes -30.7444
lfemur 3.51713 -3.77788 -7.59032
ltibia 38.0026
lfoot -12.3001 0.392496
ltoes -34.6843
268
root 10.258 16.1649 -7.4061 3.27265 0.453259 6.59606
lowerback 11.2507 -0.991294 -0.0673195
upperback 0.629384 -1.03459 4.90018
thorax -5.56764 -0.445164 5.37783
lowerneck -3.77258 -13.6475 -12.1484
upperneck 18.1718 -19.7023 11.1614
head 8.60176 -9.3615 3.61732
rclavicle -1.19271e-015 -1.59028e-014
rhumerus 63.0617 25.585 -37.8322
rradius 94.8225
rwrist -5.44644
rhand -30.2554 20.9859
rfingers 7.12502
rthumb -3.56409 -8.964
lclavicle -1.19271e-015 -1.59028e-014
lhumerus 12.2257 14.9791 83.4671
lradius 122.451
lwrist 21.7488
lhand -21.7782 51.2052
lfingers 7.12502
lthumb 4.62297 81.1348
rfemur -41.002 -0.68784 -7.60476
rtibia 38.9568
rfoot -6.96999 12.1471
rtoes -30.5683
lfemur 3.55977 -3.07797 -7.39387
ltibia 37.6816
lfoot -12.9123 0.781901
ltoes -35.0703
269
root 10.3182 16.1981 -7.47803 3.27363 0.492639 6.18651
lowerback 10.8652 -1.37381 -0.542942
upperback 0.628521 -1.60081 5.13453
thorax -5.28025 -0.716265 5.97336
lowerneck -4.61457 -13.4745 -12.0974
upperneck 18.6558 -19.4873 11.2978
head 8.89893 -9.20081 3.61938
rclavicle -3.61788e-014 3.18055e-015
rhumerus 61.5753 24.8926 -38.9698
rradius 94.6403
rwrist -4.44061
rhand -30.1341 20.927
rfingers 7.12502
rthumb -3.44692 -9.02485
lclavicle -3.61788e-014 3.18055e-015
lhumerus 13.7191 12.8412 82.8802
lradius 119.454
lwrist 23.0399
lhand -22.005 50.5953
lfingers 7.12502
lthumb 4.40393 80.5295
rfemur -40.3466 -0.340623 -7.37947
rtibia 37.6828
rfoot -6.24698 11.2441
rtoes -31.2512
lfemur 3.57764 -2.53705 -6.98963
ltibia 37.2312
lfoot -13.2889 0.671864
ltoes -35.3563
270
root 10.3738 16.2342 -7.54908 3.35385 0.692976 5.64647
lowerback 10.3283 -2.11995 -0.836563
upperback 0.764117 -2.62224 5.65081
thorax -4.69074 -1.22755 6.80898
lowerneck -6.21597 -13.0827 -12.8569
upperneck 19.6037 -18.7719 11.1232
head 9.48485 -8.84345 3.65668
rclavicle 2.34566e-014 -6.04305e-014
rhumerus 61.4281 24.7775 -39.7715
rradius 94.6535
rwrist -3.41245
rhand -29.1433 20.4729
rfingers 7.12502
rthumb -2.49013 -9.49228
lclavicle 2.34566e-014 -6.04305e-014
lhumerus 15.1504 12.2265 82.3329
lradius 116.689
lwrist 24.5054
lhand -22.0685 49.7893
lfingers 7.12502
lthumb 4.34263 79.7248
rfemur -39.6964 0.111102 -7.05911
rtibia 36.5331
rfoot -5.6602 9.99909
rtoes -30.8373
lfemur 3.51763 -2.35669 -6.38746
ltibia 36.677
lfoot -13.6223 0.357709
ltoes -35.9046
